name rise30.9205peak61.366fall85.3838.mot
datacolumns 19
datarows 18
range 9.36829700000000 9.39663100000000
endheader
time	ground_force1_vx	ground_force1_vy	ground_force1_vz	ground_force1_px	ground_force1_py	ground_force1_pz	ground_force2_vx	ground_force2_vy	ground_force2_vz	ground_force2_px	ground_force2_py	ground_force2_pz	ground_torque1_x	ground_torque1_y	ground_torque1_z	ground_torque2_x	ground_torque2_y	ground_torque2_z	
9.36829700000000	3.20735500000000	692.17944000000000	39.11847400000000	0.22542700000000	0.00000000000000	0.12055200000000	0.00000000000000	0.00000000000000	0.00000000000000	0.00000000000000	0.00000000000000	0.00000000000000	0.00000000000000	15.39735800000000	0.00000000000000	0.00000000000000	0.00000000000000	0.00000000000000	
9.36997000000000	2.69501300000000	692.81311400000004	39.17834600000000	0.22449500000000	0.00000000000000	0.12062100000000	0.00000000000000	0.00000000000000	0.00000000000000	0.00000000000000	0.00000000000000	0.00000000000000	0.00000000000000	15.49836500000000	0.00000000000000	0.00000000000000	0.00000000000000	0.00000000000000	
9.37163600000000	2.17509400000000	693.48607500000003	39.24166400000000	0.22354100000000	0.00000000000000	0.12069100000000	0.00000000000000	0.00000000000000	0.00000000000000	0.00000000000000	0.00000000000000	0.00000000000000	0.00000000000000	15.60240400000000	0.00000000000000	0.00000000000000	0.00000000000000	0.00000000000000	
9.37330800000000	1.64750900000000	694.19779000000005	39.30839600000000	0.22256600000000	0.00000000000000	0.12076300000000	0.00000000000000	0.00000000000000	0.00000000000000	0.00000000000000	0.00000000000000	0.00000000000000	0.00000000000000	15.70941800000000	0.00000000000000	0.00000000000000	0.00000000000000	0.00000000000000	
9.37496400000000	1.11219200000000	694.94778399999996	39.37851400000000	0.22156900000000	0.00000000000000	0.12083500000000	0.00000000000000	0.00000000000000	0.00000000000000	0.00000000000000	0.00000000000000	0.00000000000000	0.00000000000000	15.81935600000000	0.00000000000000	0.00000000000000	0.00000000000000	0.00000000000000	
9.37663100000000	0.56910100000000	695.73563999999999	39.45200000000000	0.22055100000000	0.00000000000000	0.12090800000000	0.00000000000000	0.00000000000000	0.00000000000000	0.00000000000000	0.00000000000000	0.00000000000000	0.00000000000000	15.93216800000000	0.00000000000000	0.00000000000000	0.00000000000000	0.00000000000000	
9.37829800000000	0.01821700000000	696.56099800000004	39.52884100000000	0.21951100000000	0.00000000000000	0.12098200000000	0.00000000000000	0.00000000000000	0.00000000000000	0.00000000000000	0.00000000000000	0.00000000000000	0.00000000000000	16.04781000000000	0.00000000000000	0.00000000000000	0.00000000000000	0.00000000000000	
9.37997400000000	-0.54045700000000	697.42355399999997	39.60903000000000	0.21845200000000	0.00000000000000	0.12105700000000	0.00000000000000	0.00000000000000	0.00000000000000	0.00000000000000	0.00000000000000	0.00000000000000	0.00000000000000	16.16623800000000	0.00000000000000	0.00000000000000	0.00000000000000	0.00000000000000	
9.38163500000000	-1.10689400000000	698.32306300000005	39.69256600000000	0.21737200000000	0.00000000000000	0.12113300000000	0.00000000000000	0.00000000000000	0.00000000000000	0.00000000000000	0.00000000000000	0.00000000000000	0.00000000000000	16.28741400000000	0.00000000000000	0.00000000000000	0.00000000000000	0.00000000000000	
9.38331200000000	-1.68104800000000	699.25933699999996	39.77945000000000	0.21627300000000	0.00000000000000	0.12120900000000	0.00000000000000	0.00000000000000	0.00000000000000	0.00000000000000	0.00000000000000	0.00000000000000	0.00000000000000	16.41129700000000	0.00000000000000	0.00000000000000	0.00000000000000	0.00000000000000	
9.38496200000000	-2.26284900000000	700.23224000000005	39.86968900000000	0.21515500000000	0.00000000000000	0.12128500000000	0.00000000000000	0.00000000000000	0.00000000000000	0.00000000000000	0.00000000000000	0.00000000000000	0.00000000000000	16.53784900000000	0.00000000000000	0.00000000000000	0.00000000000000	0.00000000000000	
9.38663400000000	-2.85220700000000	701.24169500000005	39.96329400000000	0.21402100000000	0.00000000000000	0.12136200000000	0.00000000000000	0.00000000000000	0.00000000000000	0.00000000000000	0.00000000000000	0.00000000000000	0.00000000000000	16.66703400000000	0.00000000000000	0.00000000000000	0.00000000000000	0.00000000000000	
9.38829700000000	-3.44901300000000	702.28767000000005	40.06027700000000	0.21287000000000	0.00000000000000	0.12143900000000	0.00000000000000	0.00000000000000	0.00000000000000	0.00000000000000	0.00000000000000	0.00000000000000	0.00000000000000	16.79881400000000	0.00000000000000	0.00000000000000	0.00000000000000	0.00000000000000	
9.38996300000000	-4.05313800000000	703.37018699999999	40.16065400000000	0.21170400000000	0.00000000000000	0.12151600000000	0.00000000000000	0.00000000000000	0.00000000000000	0.00000000000000	0.00000000000000	0.00000000000000	0.00000000000000	16.93315000000000	0.00000000000000	0.00000000000000	0.00000000000000	0.00000000000000	
9.39163100000000	-4.66443500000000	704.48931100000004	40.26444100000000	0.21052500000000	0.00000000000000	0.12159300000000	0.00000000000000	0.00000000000000	0.00000000000000	0.00000000000000	0.00000000000000	0.00000000000000	0.00000000000000	17.07000300000000	0.00000000000000	0.00000000000000	0.00000000000000	0.00000000000000	
9.39330600000000	-5.28273700000000	705.64514999999994	40.37165900000000	0.20933300000000	0.00000000000000	0.12166900000000	0.00000000000000	0.00000000000000	0.00000000000000	0.00000000000000	0.00000000000000	0.00000000000000	0.00000000000000	17.20933100000000	0.00000000000000	0.00000000000000	0.00000000000000	0.00000000000000	
9.39496600000000	-5.90786400000000	706.83785300000000	40.48232700000000	0.20813000000000	0.00000000000000	0.12174500000000	0.00000000000000	0.00000000000000	0.00000000000000	0.00000000000000	0.00000000000000	0.00000000000000	0.00000000000000	17.35109100000000	0.00000000000000	0.00000000000000	0.00000000000000	0.00000000000000	
9.39663100000000	-6.53961600000000	708.06760199999997	40.59646500000000	0.20691800000000	0.00000000000000	0.12182100000000	0.00000000000000	0.00000000000000	0.00000000000000	0.00000000000000	0.00000000000000	0.00000000000000	0.00000000000000	17.49523600000000	0.00000000000000	0.00000000000000	0.00000000000000	0.00000000000000	
